<?xml version="1.0" encoding="UTF-8"?>
<svg xmlns="http://www.w3.org/2000/svg" xmlns:xlink="http://www.w3.org/1999/xlink" width="512px" height="512px" viewBox="0 0 512 512" version="1.1">
<defs>
<linearGradient id="linear0" gradientUnits="userSpaceOnUse" x1="158.110992" y1="478.953003" x2="158.110992" y2="51.742001" >
<stop offset="0.322" style="stop-color:rgb(63.137255%,38.823529%,96.078431%);stop-opacity:1;"/>
<stop offset="0.466" style="stop-color:rgb(69.019608%,45.490196%,93.333333%);stop-opacity:1;"/>
<stop offset="0.752" style="stop-color:rgb(84.705882%,63.137255%,86.666667%);stop-opacity:1;"/>
<stop offset="0.898" style="stop-color:rgb(93.72549%,72.941176%,82.745098%);stop-opacity:1;"/>
</linearGradient>
<linearGradient id="linear1" gradientUnits="userSpaceOnUse" x1="131.658997" y1="478.953003" x2="131.658997" y2="51.743" >
<stop offset="0.322" style="stop-color:rgb(63.137255%,38.823529%,96.078431%);stop-opacity:1;"/>
<stop offset="0.466" style="stop-color:rgb(69.019608%,45.490196%,93.333333%);stop-opacity:1;"/>
<stop offset="0.752" style="stop-color:rgb(84.705882%,63.137255%,86.666667%);stop-opacity:1;"/>
<stop offset="0.898" style="stop-color:rgb(93.72549%,72.941176%,82.745098%);stop-opacity:1;"/>
</linearGradient>
<linearGradient id="linear2" gradientUnits="userSpaceOnUse" x1="203.231003" y1="478.953003" x2="203.231003" y2="51.742001" >
<stop offset="0.322" style="stop-color:rgb(63.137255%,38.823529%,96.078431%);stop-opacity:1;"/>
<stop offset="0.466" style="stop-color:rgb(69.019608%,45.490196%,93.333333%);stop-opacity:1;"/>
<stop offset="0.752" style="stop-color:rgb(84.705882%,63.137255%,86.666667%);stop-opacity:1;"/>
<stop offset="0.898" style="stop-color:rgb(93.72549%,72.941176%,82.745098%);stop-opacity:1;"/>
</linearGradient>
<linearGradient id="linear3" gradientUnits="userSpaceOnUse" x1="315.537994" y1="478.953003" x2="315.537994" y2="51.742001" >
<stop offset="0.322" style="stop-color:rgb(63.137255%,38.823529%,96.078431%);stop-opacity:1;"/>
<stop offset="0.466" style="stop-color:rgb(69.019608%,45.490196%,93.333333%);stop-opacity:1;"/>
<stop offset="0.752" style="stop-color:rgb(84.705882%,63.137255%,86.666667%);stop-opacity:1;"/>
<stop offset="0.898" style="stop-color:rgb(93.72549%,72.941176%,82.745098%);stop-opacity:1;"/>
</linearGradient>
<linearGradient id="linear4" gradientUnits="userSpaceOnUse" x1="256" y1="478.953003" x2="256" y2="51.742001" >
<stop offset="0.322" style="stop-color:rgb(63.137255%,38.823529%,96.078431%);stop-opacity:1;"/>
<stop offset="0.466" style="stop-color:rgb(69.019608%,45.490196%,93.333333%);stop-opacity:1;"/>
<stop offset="0.752" style="stop-color:rgb(84.705882%,63.137255%,86.666667%);stop-opacity:1;"/>
<stop offset="0.898" style="stop-color:rgb(93.72549%,72.941176%,82.745098%);stop-opacity:1;"/>
</linearGradient>
</defs>
<g id="surface1">
<path style=" stroke:none;fill-rule:nonzero;fill:url(#linear0);" d="M 178.011719 447.59375 L 148.398438 399.964844 C 146.648438 397.152344 142.949219 396.289062 140.136719 398.039062 C 137.324219 399.789062 136.460938 403.488281 138.210938 406.300781 L 167.816406 453.929688 C 169.566406 456.746094 173.265625 457.605469 176.082031 455.859375 C 178.894531 454.109375 179.757812 450.40625 178.007812 447.59375 Z M 178.011719 447.59375 "/>
<path style=" stroke:none;fill-rule:nonzero;fill:url(#linear1);" d="M 139.875 386.25 L 133.632812 376.210938 C 131.882812 373.394531 128.183594 372.53125 125.371094 374.28125 C 122.554688 376.03125 121.691406 379.730469 123.441406 382.546875 L 129.683594 392.585938 C 131.433594 395.398438 135.132812 396.261719 137.949219 394.511719 C 140.761719 392.765625 141.625 389.0625 139.875 386.25 Z M 139.875 386.25 "/>
<path style=" stroke:none;fill-rule:nonzero;fill:url(#linear2);" d="M 203.230469 142.867188 C 175.023438 142.804688 152.109375 165.632812 152.070312 193.84375 C 152.027344 222.054688 174.875 244.949219 203.082031 244.96875 C 231.292969 244.988281 254.171875 222.128906 254.171875 193.917969 C 254.171875 165.765625 231.382812 142.929688 203.230469 142.867188 Z M 203.230469 232.96875 C 181.648438 233.027344 164.109375 215.570312 164.070312 193.988281 C 164.027344 172.410156 181.5 154.886719 203.082031 154.863281 C 224.664062 154.84375 242.171875 172.335938 242.171875 193.914062 C 242.179688 215.445312 224.757812 232.914062 203.230469 232.96875 Z M 203.230469 232.96875 "/>
<path style=" stroke:none;fill-rule:nonzero;fill:url(#linear3);" d="M 315.539062 142.867188 C 287.328125 142.804688 264.417969 165.632812 264.375 193.84375 C 264.335938 222.054688 287.179688 244.949219 315.390625 244.96875 C 343.597656 244.988281 366.476562 222.128906 366.476562 193.917969 C 366.476562 165.765625 343.6875 142.929688 315.539062 142.867188 Z M 315.539062 232.96875 C 293.957031 233.027344 276.417969 215.570312 276.375 193.988281 C 276.335938 172.410156 293.808594 154.886719 315.390625 154.863281 C 336.972656 154.84375 354.476562 172.335938 354.476562 193.914062 C 354.484375 215.445312 337.066406 232.914062 315.539062 232.96875 Z M 315.539062 232.96875 "/>
<path style=" stroke:none;fill-rule:nonzero;fill:url(#linear4);" d="M 382.425781 84.59375 C 382.246094 84.480469 382.136719 84.285156 382.136719 84.074219 L 382.136719 49.390625 C 392.570312 47.757812 400.269531 38.773438 400.28125 28.210938 C 400.269531 18.160156 392.121094 10.011719 382.066406 10 L 129.917969 10 C 119.867188 10.011719 111.722656 18.160156 111.71875 28.210938 C 111.730469 38.773438 119.425781 47.757812 129.863281 49.390625 L 129.863281 84.074219 C 129.863281 84.285156 129.753906 84.484375 129.574219 84.59375 C 115.230469 93.652344 67.542969 128.644531 56 198.492188 C 50.15625 233.847656 54.589844 272.894531 69.179688 314.546875 C 86.589844 364.257812 118.746094 418.328125 164.757812 475.253906 C 166.070312 476.871094 167.664062 478.234375 169.464844 479.285156 L 169.464844 484.921875 C 169.476562 494.351562 177.117188 501.988281 186.546875 502 L 325.464844 502 C 334.886719 501.988281 342.523438 494.355469 342.535156 484.933594 L 342.535156 479.28125 C 344.332031 478.230469 345.921875 476.867188 347.234375 475.25 C 393.246094 418.324219 425.402344 364.25 442.8125 314.542969 C 457.402344 272.890625 461.835938 233.84375 455.992188 198.492188 C 444.453125 128.644531 396.765625 93.652344 382.425781 84.59375 Z M 444.15625 200.449219 C 444.777344 204.195312 445.257812 207.992188 445.628906 211.832031 C 432.078125 218.730469 415.757812 217.128906 403.804688 207.730469 C 391.851562 198.328125 386.449219 182.84375 389.960938 168.050781 C 393.46875 153.253906 405.25 141.847656 420.152344 138.816406 C 432.4375 157.425781 440.621094 178.433594 444.15625 200.449219 Z M 123.71875 28.199219 C 123.722656 24.777344 126.496094 22.003906 129.921875 22 L 382.070312 22 C 385.5 22.003906 388.277344 24.78125 388.28125 28.210938 C 388.285156 33.421875 384.074219 37.652344 378.863281 37.667969 L 133.136719 37.667969 C 127.925781 37.648438 123.710938 33.414062 123.71875 28.199219 Z M 370.136719 49.671875 L 370.136719 81.628906 C 362.257812 81.425781 354.445312 81.25 346.699219 81.09375 L 346.699219 49.667969 Z M 334.699219 49.671875 L 334.699219 80.875 C 327.074219 80.746094 319.546875 80.640625 312.125 80.554688 L 312.125 49.667969 Z M 300.125 49.671875 L 300.125 80.429688 C 292.445312 80.363281 284.921875 80.316406 277.554688 80.28125 L 277.554688 49.667969 Z M 265.554688 49.671875 L 265.554688 80.25 C 257.792969 80.238281 250.269531 80.242188 242.980469 80.265625 L 242.980469 49.664062 Z M 230.980469 49.671875 L 230.980469 80.3125 C 223.085938 80.355469 215.542969 80.410156 208.40625 80.484375 L 208.40625 49.667969 Z M 196.40625 49.671875 L 196.40625 80.617188 C 188.183594 80.714844 180.632812 80.832031 173.835938 80.945312 L 173.835938 49.667969 Z M 161.835938 49.671875 L 161.835938 81.171875 C 153.28125 81.339844 146.519531 81.5 141.863281 81.621094 L 141.863281 49.667969 Z M 135.984375 94.738281 C 136.457031 94.4375 136.910156 94.105469 137.34375 93.746094 C 154.46875 93.265625 258.742188 90.617188 374.660156 93.75 C 375.089844 94.109375 375.542969 94.441406 376.015625 94.738281 C 381.515625 98.265625 386.753906 102.1875 391.683594 106.46875 L 120.316406 106.46875 C 125.246094 102.1875 130.484375 98.265625 135.984375 94.738281 Z M 67.839844 200.449219 C 71.464844 177.886719 79.96875 156.390625 92.753906 137.453125 C 113.152344 139.027344 129.863281 156.535156 129.863281 177.105469 C 129.917969 192.046875 121.410156 205.703125 107.972656 212.238281 C 94.53125 218.773438 78.535156 217.035156 66.816406 207.761719 C 67.113281 205.308594 67.441406 202.863281 67.839844 200.449219 Z M 174.09375 467.707031 C 133.792969 417.847656 104.386719 370.371094 86.476562 326.320312 C 96.675781 328.929688 109.53125 331.910156 124.605469 334.792969 L 197.164062 469.664062 L 178.230469 469.664062 C 176.625 469.675781 175.105469 468.953125 174.09375 467.707031 Z M 264.140625 469.664062 L 239.515625 469.664062 L 219.226562 346.386719 C 232.648438 347.140625 245.980469 347.527344 259.226562 347.539062 C 267.628906 347.539062 275.992188 347.382812 284.316406 347.066406 Z M 296.574219 346.507812 C 321.023438 345.1875 345.378906 342.488281 369.523438 338.421875 L 298.917969 469.664062 L 276.300781 469.664062 Z M 227.355469 469.664062 L 210.792969 469.664062 L 139.691406 337.507812 C 159.34375 340.820312 181.984375 343.785156 206.933594 345.613281 Z M 330.535156 484.933594 C 330.53125 487.730469 328.265625 489.996094 325.464844 490 L 186.546875 490 C 183.742188 489.996094 181.46875 487.722656 181.464844 484.921875 L 181.464844 481.664062 L 330.535156 481.664062 Z M 337.90625 467.707031 C 336.898438 468.953125 335.375 469.675781 333.769531 469.664062 L 312.546875 469.664062 L 384.617188 335.699219 C 398.414062 333.019531 412.054688 329.886719 425.527344 326.300781 C 407.617188 370.359375 378.210938 417.84375 337.90625 467.707031 Z M 431.492188 310.574219 C 431.28125 311.183594 431.054688 311.796875 430.839844 312.402344 C 362.4375 331.695312 289.328125 338.980469 213.484375 334.039062 C 153 330.101562 105.65625 319.199219 81.199219 312.511719 C 80.96875 311.867188 80.730469 311.21875 80.507812 310.578125 C 79.488281 307.667969 78.519531 304.773438 77.605469 301.894531 C 118.847656 312.921875 161.027344 320.082031 203.601562 323.285156 C 222.367188 324.75 240.957031 325.480469 259.375 325.476562 C 320.058594 325.476562 378.707031 317.550781 434.421875 301.792969 C 433.496094 304.707031 432.519531 307.632812 431.492188 310.574219 Z M 438.398438 288.140625 C 365.074219 309.890625 286.414062 317.699219 204.53125 311.324219 C 141.609375 306.425781 94.03125 294.261719 73.640625 288.300781 C 72.726562 284.839844 71.886719 281.402344 71.121094 277.988281 C 91.976562 284.050781 135.878906 295.101562 193.988281 300.398438 C 216.074219 302.414062 237.917969 303.421875 259.519531 303.421875 C 322.484375 303.421875 383.246094 294.851562 440.914062 277.832031 C 440.152344 281.246094 439.316406 284.679688 438.398438 288.140625 Z M 443.5 264.523438 C 365.816406 288.351562 282.261719 296.398438 195.082031 288.449219 C 131.5 282.644531 85.398438 269.898438 68.527344 264.691406 C 67.96875 261.34375 67.488281 258.023438 67.085938 254.726562 C 83.949219 259.828125 123.71875 270.503906 178.421875 276.679688 C 204.96875 279.671875 231.660156 281.167969 258.375 281.171875 C 313.203125 281.171875 377.882812 274.792969 444.933594 254.558594 C 444.535156 257.851562 444.054688 261.175781 443.5 264.523438 Z M 446.117188 241.632812 C 342.742188 273.789062 244.59375 272.039062 180.125 264.800781 C 120.664062 258.117188 78.277344 245.699219 65.890625 241.78125 C 65.472656 235.015625 65.40625 228.234375 65.691406 221.460938 C 81.472656 230.46875 100.859375 230.386719 116.5625 221.242188 C 132.265625 212.101562 141.910156 195.28125 141.863281 177.109375 C 141.863281 152.800781 123.960938 131.773438 100.832031 126.574219 C 103.179688 123.679688 105.53125 120.976562 107.863281 118.472656 L 404.132812 118.472656 C 406.9375 121.488281 409.78125 124.792969 412.605469 128.371094 C 394.785156 133.933594 381.421875 148.777344 377.757812 167.082031 C 374.09375 185.382812 380.710938 204.230469 395.011719 216.222656 C 409.316406 228.214844 429.027344 231.445312 446.410156 224.648438 C 446.554688 230.222656 446.457031 235.886719 446.117188 241.632812 Z M 446.117188 241.632812 "/>
</g>
</svg>
