<svg id="Layer_1" data-name="Layer 1" xmlns="http://www.w3.org/2000/svg" xmlns:xlink="http://www.w3.org/1999/xlink" viewBox="0 0 512 512"><defs><linearGradient id="linear-gradient" x1="158.111" y1="478.953" x2="158.111" y2="51.742" gradientUnits="userSpaceOnUse"><stop offset="0.322" stop-color="#a163f5"/><stop offset="0.466" stop-color="#b074ee"/><stop offset="0.752" stop-color="#d8a1dd"/><stop offset="0.898" stop-color="#efbad3"/></linearGradient><linearGradient id="linear-gradient-2" x1="131.659" y1="478.953" x2="131.659" y2="51.743" xlink:href="#linear-gradient"/><linearGradient id="linear-gradient-3" x1="203.231" y1="478.953" x2="203.231" y2="51.742" xlink:href="#linear-gradient"/><linearGradient id="linear-gradient-4" x1="315.538" y1="478.953" x2="315.538" y2="51.742" xlink:href="#linear-gradient"/><linearGradient id="linear-gradient-5" x1="256" y1="478.953" x2="256" y2="51.742" xlink:href="#linear-gradient"/></defs><path d="M178.01,447.594,148.4,399.966a6,6,0,1,0-10.191,6.336l29.608,47.628a6,6,0,0,0,10.191-6.336Z" style="fill:url(#linear-gradient)"/><path d="M139.876,386.25l-6.243-10.041a6,6,0,1,0-10.191,6.336l6.243,10.041a6,6,0,1,0,10.191-6.336Z" style="fill:url(#linear-gradient-2)"/><path d="M203.231,142.867a51.051,51.051,0,1,0,50.94,51.051A51.053,51.053,0,0,0,203.231,142.867Zm0,90.1a39.051,39.051,0,1,1,38.94-39.051A39.039,39.039,0,0,1,203.231,232.969Z" style="fill:url(#linear-gradient-3)"/><path d="M315.538,142.867a51.051,51.051,0,1,0,50.94,51.051A51.053,51.053,0,0,0,315.538,142.867Zm0,90.1a39.051,39.051,0,1,1,38.94-39.051A39.039,39.039,0,0,1,315.538,232.969Z" style="fill:url(#linear-gradient-4)"/><path d="M382.424,84.594a.613.613,0,0,1-.288-.519V49.391A21.46,21.46,0,0,0,400.28,28.212,18.233,18.233,0,0,0,382.068,10H129.918a18.221,18.221,0,0,0-18.2,18.212,21.46,21.46,0,0,0,18.144,21.179V84.075a.611.611,0,0,1-.289.519c-14.341,9.06-62.029,44.049-73.573,113.9-5.843,35.355-1.409,74.4,13.179,116.053,17.411,49.711,49.569,103.78,95.58,160.707a17.232,17.232,0,0,0,4.705,4.03v5.639A17.1,17.1,0,0,0,186.545,502H325.466a17.088,17.088,0,0,0,17.068-17.068v-5.651a17.236,17.236,0,0,0,4.7-4.031c46.011-56.926,78.169-111,95.579-160.707,14.589-41.651,19.023-80.7,13.18-116.052C444.453,128.643,396.766,93.654,382.424,84.594Zm61.734,115.854c.619,3.746,1.1,7.545,1.472,11.384a39.022,39.022,0,1,1-25.478-73.015A157.13,157.13,0,0,1,444.158,200.448ZM123.72,28.2a6.206,6.206,0,0,1,6.2-6.2h252.15a6.219,6.219,0,0,1,6.212,6.212,9.448,9.448,0,0,1-9.418,9.456H133.138A9.451,9.451,0,0,1,123.72,28.2Zm246.416,21.47V81.627q-11.819-.3-23.437-.532V49.668Zm-35.437,0V80.875q-11.439-.192-22.573-.321V49.668Zm-34.573,0V80.431q-11.52-.1-22.573-.148V49.668Zm-34.573,0v30.58q-11.639-.018-22.573.015v-30.6Zm-34.573,0V80.312c-7.895.042-15.437.1-22.573.171V49.668Zm-34.573,0V80.616c-8.225.1-15.774.215-22.573.331V49.668Zm-34.573,0v31.5c-8.554.17-15.314.331-19.97.452V49.668ZM135.983,94.74a12.756,12.756,0,0,0,1.36-.995c17.124-.481,121.4-3.129,237.319.006a12.769,12.769,0,0,0,1.354.989,135.1,135.1,0,0,1,15.669,11.73H120.315A135.019,135.019,0,0,1,135.983,94.74ZM67.841,200.448a157.1,157.1,0,0,1,24.913-62.995c20.4,1.574,37.11,19.084,37.11,39.651a38.908,38.908,0,0,1-63.048,30.658C67.112,205.307,67.442,202.864,67.841,200.448ZM174.094,467.707c-40.3-49.86-69.706-97.336-87.617-141.388,10.2,2.611,23.056,5.59,38.129,8.473l72.56,134.874H178.229A5.285,5.285,0,0,1,174.094,467.707Zm90.047,1.959H239.516L219.225,346.387q20.135,1.131,40,1.154,12.607,0,25.092-.474Zm32.432-123.159a650.684,650.684,0,0,0,72.952-8.085L298.919,469.666H276.3ZM227.354,469.666H210.792l-71.1-132.16c19.65,3.315,42.294,6.28,67.243,8.107Zm103.18,15.266A5.073,5.073,0,0,1,325.466,490H186.545a5.086,5.086,0,0,1-5.079-5.08v-3.254H330.534Zm7.373-17.226a5.286,5.286,0,0,1-4.136,1.96H312.545L384.616,335.7q20.7-4.02,40.913-9.4C407.618,370.361,378.21,417.842,337.907,467.706Zm93.586-157.13c-.213.608-.438,1.219-.655,1.828-68.4,19.293-141.509,26.577-217.355,21.636C153,330.1,105.655,319.2,81.2,312.511c-.23-.644-.468-1.291-.693-1.934q-1.529-4.365-2.9-8.684A687.583,687.583,0,0,0,203.6,323.287q28.149,2.193,55.774,2.191c60.686,0,119.334-7.929,175.048-23.686Q433.033,306.163,431.493,310.576ZM438.4,288.14C365.075,309.892,286.414,317.7,204.53,311.324c-62.919-4.9-110.5-17.064-130.888-23.025q-1.376-5.19-2.519-10.309C91.975,284.05,135.877,295.1,193.99,300.4q33.127,3.024,65.529,3.022c62.966,0,123.728-8.57,181.394-25.589Q439.773,282.95,438.4,288.14Zm5.1-23.616C365.816,288.35,282.263,296.4,195.081,288.449,131.5,282.646,85.4,269.9,68.528,264.69q-.837-5.019-1.441-9.963c16.863,5.1,56.632,15.778,111.334,21.954a715.066,715.066,0,0,0,79.955,4.49c54.828,0,119.508-6.378,186.558-26.612Q444.333,259.5,443.5,264.524Zm2.617-22.892C342.743,273.791,244.592,272.041,180.125,264.8c-59.459-6.682-101.849-19.1-114.233-23.017a194.989,194.989,0,0,1-.2-20.323,50.922,50.922,0,0,0,76.17-44.352c0-24.306-17.9-45.333-41.03-50.535,2.347-2.893,4.7-5.595,7.031-8.1h296.27c2.805,3.017,5.65,6.319,8.471,9.9a51.05,51.05,0,1,0,33.806,96.274Q446.627,233.013,446.116,241.632Z" style="fill:url(#linear-gradient-5)"/></svg>